<svg width="80" height="80" viewBox="0 0 80 80" fill="none" xmlns="http://www.w3.org/2000/svg">
<path d="M80 40C80 62.0914 62.0914 80 40 80C17.9086 80 0 62.0914 0 40C0 17.9086 17.9086 0 40 0C62.0914 0 80 17.9086 80 40Z" fill="white"/>
<path d="M23.7391 30.914L21.875 59.1859C21.8729 65.8083 34.9991 65.3276 36.0831 59.1859C36.4578 57.0628 33.5849 42.7919 33.5849 41.2306L33.5813 40.7622L33.8936 40.4499L34.6779 40.2938C36.9678 41.4908 41.8288 43.9473 42.9529 44.1971C44.0771 44.4469 46.544 42.0112 47.6369 40.7622C46.9603 48.4126 46.825 63.6821 51.6963 63.5572C56.5677 63.4323 56.4324 49.8698 55.7558 43.1041C57.2547 43.2291 58.2539 40.1377 58.0978 38.2641L56.8487 18.9039C56.5885 17.9672 54.819 15.9375 51.3841 15.9375C47.4808 16.0936 45.6592 19.9448 45.1388 22.0266C42.6406 22.0266 40.767 25.2535 40.1425 26.8669C39.518 28.8445 37.9879 32.7996 36.8637 32.7996C35.7396 32.7996 34.9381 28.8445 34.6779 26.8669C32.4296 20.247 26.4028 22.8072 25.7783 25.4618C24.8415 28.272 24.9977 36.3909 24.9977 36.3909H24.3731L24.0702 30.938C24.0649 30.8438 23.9871 30.7702 23.8928 30.7702C23.8117 30.7702 23.7444 30.8331 23.7391 30.914Z" fill="black"/>
<path d="M63.5148 54.0037H62.9758H62.7063V53.5994L62.5716 53.33L62.4368 53.1952L61.8978 52.9257L61.7631 52.6562H61.4936L61.2241 52.9257H60.9546V53.33H60.5504H60.0114L59.7419 53.4647L59.6072 53.8689L59.4724 54.2732L59.6072 54.8121L59.8767 55.3511H59.6072L59.4724 55.7553V56.0248L58.9335 56.1596L58.5292 56.0248L58.3945 56.429L58.664 56.8333L58.7987 57.1028L58.664 57.3722L58.3945 57.6417L58.125 57.9112L58.2597 58.4502L58.664 58.9891L58.3945 59.2586L59.0682 59.6629V59.9323L58.7987 60.2018L59.3377 60.8755H59.8767L60.1462 61.145L60.4157 61.5493L60.8199 61.8187L61.2241 62.223L61.4936 62.6272L62.0326 63.1662V63.4356L62.7063 63.8399L63.5148 63.4356L63.6495 63.1662L63.919 62.8967L64.458 62.7619L64.7275 62.3577V62.0882L65.2665 61.9535V61.4145L65.536 61.0103L65.6707 60.8755L66.0749 61.0103L66.2097 61.145L66.6139 61.4145L66.8834 61.8187L67.2876 62.0882L68.0961 62.223L68.5003 61.9535L68.9046 61.684L69.4435 61.4145V60.7408L69.0393 60.6061L68.9046 60.3366L69.0393 60.2018V59.5281V58.8544L68.9046 58.3154L69.0393 57.7765L68.7698 57.3722V56.5638V56.0248C68.7249 55.8002 68.6351 55.3242 68.6351 55.2164V54.9469L68.3656 54.4079L68.0961 54.1384L67.9614 54.0037L67.2876 53.8689L67.0181 53.7342L67.1529 53.5994L66.7487 53.4647H66.3444H65.6707H65.1317L64.458 53.5994L64.0538 53.4647L63.7843 53.5994L63.6495 53.8689L63.5148 54.0037Z" fill="#FF3C3C"/>
</svg>
