<svg width="226" height="52" viewBox="0 0 226 52" fill="none" xmlns="http://www.w3.org/2000/svg">
<path d="M111.65 37.4211V17.7257H115.772V37.4211H111.65ZM118.706 37.4211V22.7894H122.692V25.1917H122.774C123.156 24.3545 123.72 23.6948 124.466 23.2126C125.212 22.7303 126.136 22.4892 127.237 22.4892C128.847 22.4892 130.089 22.976 130.963 23.9496C131.846 24.9141 132.287 26.2563 132.287 27.9761V37.4211H128.301V28.795C128.301 27.8396 128.074 27.1025 127.619 26.5839C127.173 26.0561 126.504 25.7922 125.612 25.7922C125.021 25.7922 124.507 25.9287 124.07 26.2017C123.633 26.4656 123.292 26.8386 123.046 27.3209C122.81 27.8032 122.692 28.3673 122.692 29.0134V37.4211H118.706ZM140.831 37.7214C139.484 37.7214 138.338 37.5258 137.392 37.1345C136.445 36.7432 135.704 36.2018 135.167 35.5103C134.639 34.8096 134.321 33.9998 134.211 33.0808L134.198 32.9579H138.088L138.115 33.0808C138.242 33.654 138.529 34.0999 138.975 34.4184C139.421 34.7368 140.039 34.8961 140.831 34.8961C141.341 34.8961 141.773 34.8369 142.128 34.7186C142.483 34.5913 142.756 34.4138 142.947 34.1863C143.147 33.9589 143.247 33.6859 143.247 33.3674V33.3538C143.247 32.9625 143.106 32.6486 142.824 32.412C142.542 32.1754 142.041 31.9752 141.322 31.8114L138.838 31.2928C137.892 31.0926 137.1 30.8059 136.463 30.4329C135.836 30.0507 135.362 29.5821 135.044 29.027C134.725 28.4629 134.566 27.8168 134.566 27.0889V27.0752C134.566 26.138 134.816 25.3282 135.317 24.6457C135.817 23.9633 136.527 23.4355 137.446 23.0624C138.374 22.6803 139.457 22.4892 140.695 22.4892C141.987 22.4892 143.083 22.6985 143.984 23.117C144.894 23.5265 145.59 24.0816 146.072 24.7822C146.564 25.4828 146.823 26.2608 146.85 27.1162V27.2527H143.179L143.165 27.1435C143.101 26.6157 142.856 26.1789 142.428 25.8332C142.009 25.4783 141.432 25.3009 140.695 25.3009C140.24 25.3009 139.844 25.3646 139.507 25.4919C139.17 25.6193 138.911 25.8013 138.729 26.0379C138.547 26.2654 138.456 26.5384 138.456 26.8568V26.8705C138.456 27.1162 138.515 27.3391 138.634 27.5393C138.761 27.7304 138.97 27.8987 139.261 28.0443C139.553 28.1899 139.944 28.3173 140.435 28.4265L142.919 28.9588C144.457 29.2773 145.558 29.755 146.222 30.3919C146.896 31.0289 147.232 31.8842 147.232 32.9579V32.9716C147.232 33.927 146.959 34.7596 146.414 35.4693C145.868 36.1791 145.112 36.7341 144.148 37.1345C143.192 37.5258 142.087 37.7214 140.831 37.7214ZM149.28 37.4211V22.7894H153.265V37.4211H149.28ZM151.273 20.9059C150.672 20.9059 150.167 20.7012 149.758 20.2917C149.348 19.8822 149.143 19.3954 149.143 18.8312C149.143 18.258 149.348 17.7712 149.758 17.3708C150.167 16.9613 150.672 16.7566 151.273 16.7566C151.873 16.7566 152.378 16.9613 152.788 17.3708C153.197 17.7712 153.402 18.258 153.402 18.8312C153.402 19.3954 153.197 19.8822 152.788 20.2917C152.378 20.7012 151.873 20.9059 151.273 20.9059ZM162.779 42.4986C161.441 42.4986 160.272 42.312 159.271 41.939C158.279 41.575 157.487 41.0791 156.896 40.4512C156.314 39.8234 155.959 39.1182 155.831 38.3356L155.818 38.2128H159.694L159.735 38.3083C159.899 38.6632 160.24 38.9771 160.759 39.2501C161.277 39.5231 161.951 39.6596 162.779 39.6596C163.807 39.6596 164.589 39.4139 165.126 38.9225C165.663 38.4312 165.932 37.776 165.932 36.9571V34.7186H165.85C165.595 35.2282 165.249 35.6695 164.812 36.0426C164.376 36.4157 163.861 36.7068 163.27 36.9161C162.688 37.1163 162.042 37.2164 161.332 37.2164C160.113 37.2164 159.057 36.9252 158.165 36.3429C157.283 35.7605 156.6 34.9279 156.118 33.8451C155.645 32.7532 155.408 31.452 155.408 29.9415V29.9279C155.408 28.3719 155.649 27.0388 156.132 25.9287C156.623 24.8186 157.314 23.9678 158.206 23.3764C159.098 22.7849 160.163 22.4892 161.4 22.4892C162.092 22.4892 162.724 22.6029 163.297 22.8304C163.871 23.0579 164.371 23.3809 164.799 23.7995C165.235 24.218 165.586 24.714 165.85 25.2872H165.932V22.7894H169.917V37.0117C169.917 38.0945 169.626 39.0454 169.044 39.8643C168.47 40.6923 167.647 41.3384 166.573 41.8025C165.508 42.2665 164.244 42.4986 162.779 42.4986ZM162.71 34.2955C163.366 34.2955 163.934 34.1226 164.417 33.7769C164.899 33.4311 165.272 32.9397 165.536 32.3028C165.809 31.6658 165.945 30.9106 165.945 30.0371V30.0234C165.945 29.1499 165.809 28.3992 165.536 27.7713C165.272 27.1344 164.894 26.6476 164.403 26.3109C163.921 25.9651 163.356 25.7922 162.71 25.7922C162.055 25.7922 161.482 25.9651 160.991 26.3109C160.499 26.6476 160.122 27.1298 159.858 27.7577C159.594 28.3855 159.462 29.1408 159.462 30.0234V30.0371C159.462 30.9106 159.594 31.6658 159.858 32.3028C160.122 32.9397 160.499 33.4311 160.991 33.7769C161.482 34.1226 162.055 34.2955 162.71 34.2955ZM172.633 37.4211V17.7257H176.619V25.3145H176.701C177.083 24.4046 177.651 23.7085 178.407 23.2262C179.171 22.7349 180.099 22.4892 181.191 22.4892C182.256 22.4892 183.17 22.7258 183.935 23.1989C184.699 23.663 185.286 24.3227 185.695 25.178C186.114 26.0334 186.323 27.0525 186.323 28.2354V37.4211H182.338V29.0543C182.338 28.0352 182.092 27.239 181.601 26.6658C181.118 26.0834 180.422 25.7922 179.512 25.7922C178.93 25.7922 178.42 25.9333 177.984 26.2153C177.556 26.4883 177.219 26.8705 176.974 27.3619C176.737 27.8441 176.619 28.4037 176.619 29.0407V37.4211H172.633ZM194.704 37.7214C193.084 37.7214 191.883 37.3802 191.1 36.6977C190.318 36.0153 189.926 34.8915 189.926 33.3265V25.7922H187.893V22.7894H189.926V19.2134H193.953V22.7894H196.628V25.7922H193.953V32.8897C193.953 33.5721 194.103 34.0498 194.403 34.3228C194.713 34.5867 195.168 34.7186 195.768 34.7186C195.95 34.7186 196.109 34.7141 196.246 34.705C196.382 34.6868 196.51 34.6686 196.628 34.6504V37.5713C196.41 37.6077 196.137 37.6395 195.809 37.6668C195.491 37.7032 195.122 37.7214 194.704 37.7214ZM204.845 37.7214C203.498 37.7214 202.352 37.5258 201.405 37.1345C200.459 36.7432 199.717 36.2018 199.18 35.5103C198.653 34.8096 198.334 33.9998 198.225 33.0808L198.211 32.9579H202.101L202.129 33.0808C202.256 33.654 202.543 34.0999 202.988 34.4184C203.434 34.7368 204.053 34.8961 204.845 34.8961C205.354 34.8961 205.787 34.8369 206.141 34.7186C206.496 34.5913 206.769 34.4138 206.96 34.1863C207.161 33.9589 207.261 33.6859 207.261 33.3674V33.3538C207.261 32.9625 207.12 32.6486 206.837 32.412C206.555 32.1754 206.055 31.9752 205.336 31.8114L202.852 31.2928C201.906 31.0926 201.114 30.8059 200.477 30.4329C199.849 30.0507 199.376 29.5821 199.058 29.027C198.739 28.4629 198.58 27.8168 198.58 27.0889V27.0752C198.58 26.138 198.83 25.3282 199.331 24.6457C199.831 23.9633 200.541 23.4355 201.46 23.0624C202.388 22.6803 203.471 22.4892 204.708 22.4892C206 22.4892 207.097 22.6985 207.998 23.117C208.908 23.5265 209.604 24.0816 210.086 24.7822C210.577 25.4828 210.837 26.2608 210.864 27.1162V27.2527H207.192L207.179 27.1435C207.115 26.6157 206.869 26.1789 206.442 25.8332C206.023 25.4783 205.445 25.3009 204.708 25.3009C204.253 25.3009 203.857 25.3646 203.521 25.4919C203.184 25.6193 202.925 25.8013 202.743 26.0379C202.561 26.2654 202.47 26.5384 202.47 26.8568V26.8705C202.47 27.1162 202.529 27.3391 202.647 27.5393C202.775 27.7304 202.984 27.8987 203.275 28.0443C203.566 28.1899 203.958 28.3173 204.449 28.4265L206.933 28.9588C208.471 29.2773 209.572 29.755 210.236 30.3919C210.909 31.0289 211.246 31.8842 211.246 32.9579V32.9716C211.246 33.927 210.973 34.7596 210.427 35.4693C209.881 36.1791 209.126 36.7341 208.161 37.1345C207.206 37.5258 206.1 37.7214 204.845 37.7214Z" fill="black"/>
<path d="M97.4911 36.0063H97.1858H97.0331V35.7773L96.9567 35.6246L96.8804 35.5483L96.575 35.3956L96.4987 35.2429H96.346L96.1933 35.3956H96.0407V35.6246H95.8116H95.5063L95.3536 35.701L95.2772 35.93L95.2009 36.159L95.2772 36.4643L95.4299 36.7697H95.2772L95.2009 36.9987V37.1514L94.8955 37.2277L94.6665 37.1514L94.5902 37.3804L94.7429 37.6094L94.8192 37.7621L94.7429 37.9148L94.5902 38.0675L94.4375 38.2201L94.5138 38.5255L94.7429 38.8308L94.5902 38.9835L94.9719 39.2125V39.3652L94.8192 39.5179L95.1246 39.8996H95.4299L95.5826 40.0523L95.7353 40.2813L95.9643 40.434L96.1933 40.663L96.346 40.892L96.6514 41.1974V41.35L97.0331 41.579L97.4911 41.35L97.5675 41.1974L97.7201 41.0447L98.0255 40.9683L98.1782 40.7393V40.5866L98.4835 40.5103V40.2049L98.6362 39.9759L98.7126 39.8996L98.9416 39.9759L99.0179 40.0523L99.247 40.2049L99.3996 40.434L99.6287 40.5866L100.087 40.663L100.316 40.5103L100.545 40.3576L100.85 40.2049V39.8233L100.621 39.7469L100.545 39.5942L100.621 39.5179V39.1362V38.7545L100.545 38.4492L100.621 38.1438L100.468 37.9148V37.4567V37.1514C100.443 37.0242 100.392 36.7544 100.392 36.6934V36.5407L100.239 36.2353L100.087 36.0826L100.01 36.0063L99.6287 35.93L99.476 35.8536L99.5523 35.7773L99.3233 35.701H99.0943H98.7126H98.4072L98.0255 35.7773L97.7965 35.701L97.6438 35.7773L97.5675 35.93L97.4911 36.0063Z" fill="#FF3C3C"/>
<path d="M97.1832 20.7371L98.6337 21.5004H99.0154L99.2444 21.3478L99.4734 21.1951L99.7788 20.7371L99.8552 20.508L99.7788 20.05L99.4734 19.7446L98.8627 19.1339L98.1757 18.6759L97.794 18.3705L97.1069 17.8362L96.5725 17.4545L96.4198 17.2255H95.7328H95.1984H94.435H93.9006L92.6028 17.3781L91.9921 17.4545L91.4577 17.7598L90.7706 18.0652L89.9309 18.3705L89.1675 18.6759L88.7094 18.9049L88.4041 19.1339L87.6407 19.7446L87.1826 20.05L86.7246 20.279L86.3429 20.5844L86.0375 20.9661L85.7322 21.1951L85.3505 21.8821L85.1214 22.3402V22.9509L84.9688 23.4089L85.3505 24.783L85.7322 25.0884L86.1902 25.5464L87.1826 26.3098L88.0987 27.0732L89.1675 27.6839L89.9309 28.0656L90.9233 28.829L91.534 29.287L91.9921 29.5924V30.1267V30.6611L91.7631 31.0428L91.534 31.9589V32.4932L91.305 33.0276L91.1523 34.1727L90.9233 34.6307L90.3889 35.3178L90.1599 35.6995L89.6255 36.1575L89.2438 36.6919L88.7094 36.9972L88.2514 37.4553L87.6407 37.837L87.4116 38.066L87.1826 38.4477V38.8294L87.6407 39.0584H88.2514H89.6255L90.3889 38.8294L91.305 38.6003L92.1448 38.066L92.8318 37.6079L93.2899 36.9972L94.0533 36.1575L94.5877 35.6995L95.1984 34.478L95.5801 33.562L95.9618 32.7223L96.4198 31.8062V31.0428V30.5084L95.9618 29.9741L95.7328 29.287L95.1984 28.829L94.435 28.2946L93.6716 27.7602L92.8318 27.3022L91.9921 26.7678L91.534 26.4625V25.5464C91.534 25.4853 91.6867 25.1138 91.7631 24.9357L91.9921 24.2486L92.5265 23.7143L93.2899 22.9509L93.9006 22.4928L94.2823 22.0348L95.1984 21.5004L95.7328 20.7371H96.4198H97.1832Z" fill="black"/>
<path d="M69.1601 21.119C68.9819 21.1954 68.5799 21.3633 68.3967 21.4244L68.3203 21.5771V21.9588L68.7784 22.2641L69.3127 22.4931L70.2288 22.5695L70.8396 22.7221L71.832 22.9512L72.519 24.0962L72.5954 25.4703L72.7481 26.7681V28.5239L72.9007 30.356L73.1298 32.5699V34.9364L73.2824 35.9288L73.4351 37.4555L73.3588 38.0663L74.1985 38.448H75.1146L75.878 38.2953L76.0307 37.6846L76.2597 37.0739L76.4124 36.5395H76.9468L77.2522 36.0814L77.4048 34.9364L77.4812 32.5699L77.7865 31.1194V29.2873V27.9132V26.2337V25.3177L77.4812 23.9436L77.7865 23.3329H78.3973L80.4585 22.9512L81.4509 22.5695L82.7487 22.2641L83.9701 21.8824L86.2603 21.119L87.2528 20.661L87.4818 20.2793L87.2528 19.8213L87.0237 19.3632L86.642 18.7525L85.6496 17.9891L84.5808 18.0655H82.7487L79.8477 18.3708C79.0843 18.4472 77.5423 18.5998 77.4812 18.5998C77.4201 18.5998 76.0816 18.8543 75.42 18.9815L70.2288 20.8137L69.1601 21.119Z" fill="black"/>
<path fill-rule="evenodd" clip-rule="evenodd" d="M61.1427 15.5461L60.6084 16.0805L60.1503 16.6149L59.1579 17.6836L58.6998 18.447L58.4708 19.1341L57.9364 20.0501V20.6608L57.2494 21.5006V22.4166L57.0203 23.2564L56.715 24.4015C56.6895 24.7577 56.6234 25.5007 56.5623 25.6229C56.5012 25.745 56.3333 26.5389 56.2569 26.9206L55.8752 27.913L55.5699 28.9818L55.4172 30.3559L55.1882 31.1193V32.188V32.9514L55.0355 33.5621V34.4018V35.3179L54.8828 36.6157V37.2264V38.1424L55.1882 38.6768H55.5699H56.715L57.0203 38.9058H58.0891H58.9289H59.9213L60.3793 38.5241V37.9898V36.9974V36.234V34.7072L60.6847 33.7911V32.9514V32.188L60.8374 31.501L61.1427 31.1193H61.9061L62.8222 31.501H63.3566L63.9673 31.73L64.12 32.3407L64.349 33.1804L64.8071 34.0201V34.7072L65.0361 35.6233L65.3415 36.234L65.7232 36.9974L65.8758 37.8371L66.3339 38.5241L66.7919 38.9058L67.479 39.1349H68.3951L68.8531 38.6768L69.2348 37.9898V36.6157L69.0822 35.1652L68.7004 33.5621L68.3951 32.3407V31.501L68.0897 30.0505L68.1661 28.9818L67.937 27.684L67.708 25.8519L67.5553 23.18L66.7919 20.8899L66.4866 19.5158L65.7232 17.989L65.0361 17.2256L63.8147 16.6149L62.8222 16.0805L62.1352 15.6988L61.1427 15.5461ZM62.5932 24.7068V23.8671L62.8222 23.6381L63.1276 24.1724V25.2412L63.2039 25.8519L63.5093 26.768L63.7383 27.3023V28.3711L63.8147 29.1345L63.5093 29.4398L62.8222 29.2871L61.9061 29.1345L61.5244 28.9818V28.4474L61.9061 27.684V26.768V26.2336L62.2878 25.3175L62.5932 24.7068Z" fill="black"/>
<path d="M10.9114 23.7852L10 37.6085C9.99898 40.8466 16.417 40.6115 16.947 37.6085C17.1302 36.5705 15.7255 29.5928 15.7255 28.8294L15.7238 28.6004L15.8764 28.4477L16.2599 28.3714C17.3796 28.9567 19.7563 30.1577 20.306 30.2799C20.8556 30.402 22.0618 29.2111 22.5962 28.6004C22.2654 32.341 22.1992 39.807 24.581 39.7459C26.9629 39.6848 26.8967 33.0535 26.5659 29.7455C27.2988 29.8066 27.7873 28.2951 27.711 27.379L27.1003 17.913C26.973 17.4549 26.1079 16.4625 24.4284 16.4625C22.5198 16.5389 21.6292 18.4219 21.3747 19.4397C20.1533 19.4397 19.2372 21.0175 18.9318 21.8064C18.6265 22.7733 17.8783 24.7071 17.3287 24.7071C16.779 24.7071 16.3872 22.7733 16.2599 21.8064C15.1606 18.5696 12.2139 19.8214 11.9085 21.1193C11.4505 22.4934 11.5268 26.4631 11.5268 26.4631H11.2214L11.0733 23.7969C11.0708 23.7509 11.0327 23.7149 10.9866 23.7149C10.9469 23.7149 10.9141 23.7456 10.9114 23.7852Z" fill="black"/>
<path d="M30.627 17.6839L30.9324 17.5312L31.2377 17.3785L31.6958 17.2258H32.2302H32.6119L32.9172 17.3785H33.4516L33.6806 17.5312L34.0623 17.6839L34.4441 17.9129V18.1419L34.5204 18.5999L34.4441 18.9053L34.6731 19.4397V20.0504L34.9021 20.4321V21.2718L35.0548 21.6535L35.2075 21.9588L35.1311 22.6459L35.3601 23.1039L35.4365 23.7146L35.3601 24.249L35.5892 25.0887V25.4704V25.9285L35.6655 26.3865V26.9972V27.3026L35.7418 27.6079L35.8945 28.0659V28.3713L35.8182 28.982L35.8945 29.3637V29.8217L35.7418 30.3561L35.8945 30.9668L35.9709 31.2722V31.8829L35.8945 32.4173L35.9709 32.8753L35.7418 33.4097V33.715V34.2494L35.6655 34.6311V35.0891L35.4365 35.4708L35.3601 35.7762L35.2838 36.0052L35.2075 36.3869V36.7686L34.9021 37.0739L34.6731 37.4556L34.5967 37.6846L34.3677 37.99L34.2914 38.2953L34.0623 38.3717L33.6043 38.5244L33.3753 38.8297L33.2989 39.0587L32.9936 39.1351H32.4592L32.0775 39.0587L31.8485 38.7534L31.5431 38.5244L31.3904 38.2953L31.2377 38.219V37.8373V37.4556V37.0739L31.0087 36.8449L30.9324 36.6159L30.856 36.3869V36.0052V35.4708L30.7797 35.2418V34.8601V34.4784L30.856 33.944V33.5623L30.7797 33.1806L30.7034 32.8753V32.1119V31.6539V31.1958L30.5507 30.5851L30.627 30.2034V29.7454L30.5507 29.2874L30.627 28.6767L30.398 27.7606V27.6079V27.3026L30.4743 27.0735L30.398 26.6918L30.4743 26.2338L30.3217 25.9285V25.5468V25.3177L30.2453 24.8597L30.169 24.4017L30.2453 23.562L30.169 22.6459L30.2453 22.1879L29.94 22.0352V21.8062L30.0163 21.5008L29.94 21.2718H29.7109L29.7873 20.5084V19.974V19.745L29.94 18.3709L30.2453 17.9892L30.4743 17.8365L30.627 17.6839Z" fill="black"/>
<path fill-rule="evenodd" clip-rule="evenodd" d="M41.0714 18.9057L40.6133 19.8218L40.1553 20.8142L39.5446 22.341L39.1629 23.9441L38.7812 25.3945L38.3231 27.4557L37.9414 29.3642V30.8909L38.1704 32.5704L37.9414 33.7918V35.624L38.1704 37.0744L38.7812 37.8378V38.5248L39.1629 39.2119L40.4606 39.2882H41.3767L42.1401 39.2119L42.6745 38.8302L43.4379 37.8378L43.6669 37.0744L44.0486 36.0056L44.2013 35.1659L44.4303 34.0208V33.0284L44.2013 32.5704L44.0486 31.9597L44.7357 31.578L45.9572 31.0436L46.6442 30.8909L47.484 30.5856H48.0947H48.7818L49.3925 31.0436L49.8505 31.578L50.5376 31.9597L50.843 32.5704L51.301 33.0284L51.6827 33.7918L52.0644 34.6315L52.3698 35.624V36.4637L52.5988 37.3797V38.0668L53.5149 38.2195H54.2019L54.5836 37.8378H54.8127L55.0417 37.0744L55.347 36.0056V35.1659V34.0208V33.4101L55.0417 32.5704L54.5836 31.578L53.8966 31.0436L53.5149 30.2802L52.4461 29.5168L51.6827 28.9825L50.843 28.5244L50.3086 28.2191L49.3925 27.9137L49.5452 27.303L50.3086 26.7686L50.843 26.2343L51.301 25.3945L51.6827 24.9365L52.5988 23.9441L53.2858 22.341V21.4249L53.0568 20.5089L52.5988 19.6691L52.0644 19.2111L51.072 18.4477L50.3086 17.837L49.3925 17.5316L48.7818 17.0736L47.484 16.7682L46.4152 16.4629H45.5755H44.4303L43.6669 16.7682L43.0562 17.5316L42.1401 17.837L41.6058 18.4477L41.0714 18.9057ZM47.713 19.8218L48.0947 19.4401L48.4001 19.2111L48.7818 19.4401V20.1272V21.0432V21.4249L48.4001 22.341L47.8657 22.8754L47.4076 23.4861L46.6442 24.4021L46.4152 24.9365L45.7281 25.5472L45.3464 26.2343L44.7357 26.7686L44.0486 27.303V26.7686V26.2343L44.2013 25.6236L44.7357 24.9365L45.3464 23.4861L46.1098 22.1883L46.6442 21.4249L47.1786 20.8142L47.713 19.8218Z" fill="black"/>
</svg>
